<svg width="32" height="32" viewBox="0 0 32 32" fill="none" xmlns="http://www.w3.org/2000/svg">
<path fill-rule="evenodd" clip-rule="evenodd" d="M16 32C24.8366 32 32 24.8366 32 16C32 7.16347 24.8366 1.52588e-05 16 1.52588e-05C7.16343 1.52588e-05 0 7.16347 0 16C0 24.8366 7.16343 32 16 32ZM20.9915 7.45349C21.2344 6.59046 20.3969 6.08012 19.632 6.62506L8.9545 14.2317C8.12498 14.8226 8.25546 16 9.1505 16H11.9622V15.9782H17.442L12.977 17.5537L11.0086 24.5466C10.7656 25.4096 11.6031 25.9199 12.368 25.375L23.0455 17.7684C23.8751 17.1774 23.7445 16 22.8496 16H18.5857L20.9915 7.45349Z" fill="#475569"/>
</svg>
